<svg width="213" height="23" viewBox="0 0 213 23" fill="none" xmlns="http://www.w3.org/2000/svg">
<path d="M13.97 17H9.7376L2.90557 5.11914H2.80889C2.94496 7.21745 3.01299 8.71419 3.01299 9.60938V17H0.0374069V1.29492H4.2376L11.0589 13.0576H11.1341C11.0267 11.0166 10.973 9.57357 10.973 8.72852V1.29492H13.97V17ZM23.4959 7.0957C22.8012 7.0957 22.2569 7.31771 21.8631 7.76172C21.4692 8.19857 21.2436 8.82161 21.1863 9.63086H25.784C25.7696 8.82161 25.5584 8.19857 25.1502 7.76172C24.742 7.31771 24.1905 7.0957 23.4959 7.0957ZM23.9578 17.2148C22.0242 17.2148 20.5131 16.6813 19.4246 15.6143C18.336 14.5472 17.7918 13.0361 17.7918 11.0811C17.7918 9.06868 18.2931 7.51465 19.2957 6.41895C20.3054 5.31608 21.6983 4.76465 23.4744 4.76465C25.1716 4.76465 26.4929 5.24805 27.4382 6.21484C28.3836 7.18164 28.8562 8.51725 28.8562 10.2217V11.8115H21.1111C21.1469 12.7425 21.4226 13.4694 21.9382 13.9922C22.4539 14.515 23.1772 14.7764 24.1082 14.7764C24.8315 14.7764 25.5154 14.7012 26.1599 14.5508C26.8045 14.4004 27.4776 14.1605 28.1795 13.8311V16.3662C27.6065 16.6527 26.9942 16.8639 26.3425 17C25.6909 17.1432 24.8959 17.2148 23.9578 17.2148ZM42.2385 17L41.3147 12.7998L40.0686 7.49316H39.9934L37.802 17H34.2785L30.8625 4.99023H34.1282L35.5139 10.3076C35.7359 11.2601 35.9615 12.5742 36.1907 14.25H36.2551C36.2837 13.7057 36.4091 12.8428 36.6311 11.6611L36.803 10.748L38.2854 4.99023H41.8948L43.302 10.748C43.3306 10.9056 43.3736 11.1383 43.4309 11.4463C43.4953 11.7542 43.5562 12.0837 43.6135 12.4346C43.6708 12.7783 43.7209 13.1185 43.7639 13.4551C43.814 13.7845 43.8427 14.0495 43.8498 14.25H43.9143C43.9787 13.7344 44.0933 13.029 44.258 12.1338C44.4227 11.2314 44.5409 10.6227 44.6125 10.3076L46.052 4.99023H49.2639L45.8049 17H42.2385ZM60.4333 13.4336C60.4333 14.6654 60.0036 15.6035 59.1442 16.248C58.292 16.8926 57.0137 17.2148 55.3093 17.2148C54.4356 17.2148 53.6908 17.154 53.0749 17.0322C52.459 16.9176 51.8825 16.7458 51.3454 16.5166V13.8096C51.9541 14.096 52.638 14.3359 53.3972 14.5293C54.1634 14.7227 54.8366 14.8193 55.4167 14.8193C56.6055 14.8193 57.1999 14.4756 57.1999 13.7881C57.1999 13.5303 57.1211 13.3226 56.9636 13.165C56.806 13.0003 56.5339 12.8177 56.1472 12.6172C55.7604 12.4095 55.2448 12.1696 54.6003 11.8975C53.6765 11.5107 52.9961 11.1527 52.5593 10.8232C52.1296 10.4938 51.8145 10.1178 51.614 9.69531C51.4206 9.26562 51.3239 8.73926 51.3239 8.11621C51.3239 7.04915 51.7357 6.22559 52.5593 5.64551C53.39 5.05827 54.5645 4.76465 56.0827 4.76465C57.5293 4.76465 58.9365 5.07975 60.3044 5.70996L59.3161 8.07324C58.7145 7.81543 58.1524 7.60417 57.6296 7.43945C57.1068 7.27474 56.5733 7.19238 56.029 7.19238C55.0622 7.19238 54.5788 7.45378 54.5788 7.97656C54.5788 8.27018 54.7328 8.52441 55.0407 8.73926C55.3558 8.9541 56.0397 9.27279 57.0925 9.69531C58.0306 10.0749 58.7181 10.4294 59.155 10.7588C59.5918 11.0882 59.9141 11.4678 60.1218 11.8975C60.3295 12.3271 60.4333 12.8392 60.4333 13.4336ZM67.1124 17H63.8361V0.285156H67.1124V17ZM76.3805 7.0957C75.6858 7.0957 75.1415 7.31771 74.7477 7.76172C74.3538 8.19857 74.1282 8.82161 74.0709 9.63086H78.6686C78.6542 8.82161 78.443 8.19857 78.0348 7.76172C77.6266 7.31771 77.0751 7.0957 76.3805 7.0957ZM76.8424 17.2148C74.9088 17.2148 73.3977 16.6813 72.3092 15.6143C71.2206 14.5472 70.6764 13.0361 70.6764 11.0811C70.6764 9.06868 71.1777 7.51465 72.1803 6.41895C73.19 5.31608 74.583 4.76465 76.359 4.76465C78.0563 4.76465 79.3775 5.24805 80.3229 6.21484C81.2682 7.18164 81.7408 8.51725 81.7408 10.2217V11.8115H73.9957C74.0315 12.7425 74.3072 13.4694 74.8229 13.9922C75.3385 14.515 76.0618 14.7764 76.9928 14.7764C77.7161 14.7764 78.4 14.7012 79.0445 14.5508C79.6891 14.4004 80.3622 14.1605 81.0641 13.8311V16.3662C80.4912 16.6527 79.8789 16.8639 79.2272 17C78.5755 17.1432 77.7805 17.2148 76.8424 17.2148ZM90.3106 14.6045C90.8835 14.6045 91.571 14.4792 92.3731 14.2285V16.667C91.5567 17.0322 90.5541 17.2148 89.3653 17.2148C88.0548 17.2148 87.0987 16.8854 86.4971 16.2266C85.9027 15.5605 85.6055 14.5651 85.6055 13.2402V7.4502H84.0372V6.06445L85.8419 4.96875L86.7872 2.43359H88.8819V4.99023H92.2442V7.4502H88.8819V13.2402C88.8819 13.7057 89.0108 14.0495 89.2686 14.2715C89.5336 14.4935 89.8809 14.6045 90.3106 14.6045ZM100.717 14.6045C101.29 14.6045 101.978 14.4792 102.78 14.2285V16.667C101.963 17.0322 100.961 17.2148 99.772 17.2148C98.4615 17.2148 97.5054 16.8854 96.9038 16.2266C96.3094 15.5605 96.0122 14.5651 96.0122 13.2402V7.4502H94.4439V6.06445L96.2486 4.96875L97.1939 2.43359H99.2886V4.99023H102.651V7.4502H99.2886V13.2402C99.2886 13.7057 99.4175 14.0495 99.6753 14.2715C99.9403 14.4935 100.288 14.6045 100.717 14.6045ZM111.038 7.0957C110.343 7.0957 109.799 7.31771 109.405 7.76172C109.011 8.19857 108.786 8.82161 108.729 9.63086H113.326C113.312 8.82161 113.101 8.19857 112.692 7.76172C112.284 7.31771 111.733 7.0957 111.038 7.0957ZM111.5 17.2148C109.566 17.2148 108.055 16.6813 106.967 15.6143C105.878 14.5472 105.334 13.0361 105.334 11.0811C105.334 9.06868 105.835 7.51465 106.838 6.41895C107.848 5.31608 109.241 4.76465 111.017 4.76465C112.714 4.76465 114.035 5.24805 114.98 6.21484C115.926 7.18164 116.398 8.51725 116.398 10.2217V11.8115H108.653C108.689 12.7425 108.965 13.4694 109.48 13.9922C109.996 14.515 110.719 14.7764 111.65 14.7764C112.374 14.7764 113.058 14.7012 113.702 14.5508C114.347 14.4004 115.02 14.1605 115.722 13.8311V16.3662C115.149 16.6527 114.536 16.8639 113.885 17C113.233 17.1432 112.438 17.2148 111.5 17.2148ZM126.612 4.76465C127.056 4.76465 127.425 4.79688 127.718 4.86133L127.471 7.93359C127.206 7.86198 126.884 7.82617 126.504 7.82617C125.459 7.82617 124.642 8.09473 124.055 8.63184C123.475 9.16895 123.185 9.9209 123.185 10.8877V17H119.909V4.99023H122.39L122.873 7.00977H123.035C123.407 6.33659 123.908 5.7959 124.539 5.3877C125.176 4.97233 125.867 4.76465 126.612 4.76465ZM146.834 12.6387C146.834 14.0566 146.322 15.1738 145.298 15.9902C144.281 16.8066 142.863 17.2148 141.044 17.2148C139.369 17.2148 137.886 16.8997 136.597 16.2695V13.1758C137.657 13.6484 138.552 13.9814 139.283 14.1748C140.02 14.3682 140.693 14.4648 141.302 14.4648C142.033 14.4648 142.591 14.3252 142.978 14.0459C143.372 13.7666 143.569 13.3512 143.569 12.7998C143.569 12.4919 143.483 12.2197 143.311 11.9834C143.139 11.7399 142.885 11.5072 142.548 11.2852C142.219 11.0632 141.542 10.7087 140.518 10.2217C139.558 9.77051 138.839 9.33724 138.359 8.92188C137.879 8.50651 137.496 8.02311 137.209 7.47168C136.923 6.92025 136.78 6.27572 136.78 5.53809C136.78 4.14876 137.249 3.05664 138.187 2.26172C139.132 1.4668 140.436 1.06934 142.097 1.06934C142.913 1.06934 143.69 1.16602 144.428 1.35938C145.173 1.55273 145.95 1.82487 146.759 2.17578L145.685 4.76465C144.847 4.4209 144.152 4.18099 143.601 4.04492C143.057 3.90885 142.52 3.84082 141.99 3.84082C141.359 3.84082 140.876 3.98763 140.539 4.28125C140.203 4.57487 140.035 4.95801 140.035 5.43066C140.035 5.72428 140.103 5.9821 140.239 6.2041C140.375 6.41895 140.59 6.63021 140.883 6.83789C141.184 7.03841 141.889 7.40365 142.999 7.93359C144.467 8.63542 145.474 9.34082 146.018 10.0498C146.562 10.7516 146.834 11.6146 146.834 12.6387ZM150.13 1.88574C150.13 0.818685 150.724 0.285156 151.913 0.285156C153.102 0.285156 153.696 0.818685 153.696 1.88574C153.696 2.39421 153.546 2.79167 153.245 3.07812C152.951 3.35742 152.507 3.49707 151.913 3.49707C150.724 3.49707 150.13 2.95996 150.13 1.88574ZM153.546 17H150.269V4.99023H153.546V17ZM168.292 4.99023V6.65527L166.412 7.13867C166.756 7.67578 166.928 8.27734 166.928 8.94336C166.928 10.2324 166.477 11.2386 165.575 11.9619C164.679 12.6781 163.433 13.0361 161.836 13.0361L161.245 13.0039L160.762 12.9502C160.425 13.208 160.257 13.4945 160.257 13.8096C160.257 14.2822 160.859 14.5186 162.062 14.5186H164.103C165.421 14.5186 166.423 14.8014 167.111 15.3672C167.805 15.9329 168.153 16.7637 168.153 17.8594C168.153 19.263 167.565 20.3516 166.391 21.125C165.224 21.8984 163.544 22.2852 161.353 22.2852C159.677 22.2852 158.395 21.9915 157.507 21.4043C156.626 20.8242 156.186 20.0078 156.186 18.9551C156.186 18.2318 156.411 17.6266 156.863 17.1396C157.314 16.6527 157.976 16.3053 158.85 16.0977C158.513 15.9544 158.22 15.7217 157.969 15.3994C157.718 15.07 157.593 14.7227 157.593 14.3574C157.593 13.8991 157.726 13.5195 157.991 13.2188C158.256 12.9108 158.639 12.61 159.14 12.3164C158.51 12.0443 158.008 11.6074 157.636 11.0059C157.271 10.4043 157.088 9.69531 157.088 8.87891C157.088 7.56836 157.514 6.55501 158.367 5.83887C159.219 5.12272 160.436 4.76465 162.019 4.76465C162.355 4.76465 162.753 4.79688 163.211 4.86133C163.677 4.91862 163.974 4.96159 164.103 4.99023H168.292ZM159.022 18.6973C159.022 19.1484 159.237 19.5029 159.666 19.7607C160.103 20.0186 160.712 20.1475 161.492 20.1475C162.667 20.1475 163.587 19.9863 164.253 19.6641C164.919 19.3418 165.252 18.9014 165.252 18.3428C165.252 17.8916 165.055 17.5801 164.661 17.4082C164.268 17.2363 163.659 17.1504 162.835 17.1504H161.138C160.536 17.1504 160.032 17.29 159.623 17.5693C159.222 17.8558 159.022 18.2318 159.022 18.6973ZM160.214 8.92188C160.214 9.57357 160.361 10.0892 160.655 10.4688C160.955 10.8483 161.41 11.0381 162.019 11.0381C162.635 11.0381 163.086 10.8483 163.372 10.4688C163.659 10.0892 163.802 9.57357 163.802 8.92188C163.802 7.47526 163.208 6.75195 162.019 6.75195C160.816 6.75195 160.214 7.47526 160.214 8.92188ZM182.212 17H178.935V9.98535C178.935 9.11882 178.781 8.4707 178.473 8.04102C178.165 7.60417 177.675 7.38574 177.002 7.38574C176.085 7.38574 175.423 7.69368 175.014 8.30957C174.606 8.91829 174.402 9.93164 174.402 11.3496V17H171.126V4.99023H173.629L174.069 6.52637H174.252C174.617 5.94629 175.118 5.50944 175.756 5.21582C176.4 4.91504 177.131 4.76465 177.947 4.76465C179.344 4.76465 180.403 5.14421 181.127 5.90332C181.85 6.65527 182.212 7.74382 182.212 9.16895V17ZM194.939 17L194.498 15.4639H194.326C193.975 16.0225 193.478 16.4557 192.833 16.7637C192.189 17.0645 191.455 17.2148 190.631 17.2148C189.22 17.2148 188.157 16.8389 187.441 16.0869C186.724 15.3278 186.366 14.2393 186.366 12.8213V4.99023H189.643V12.0049C189.643 12.8714 189.797 13.5231 190.105 13.96C190.413 14.3896 190.903 14.6045 191.576 14.6045C192.493 14.6045 193.155 14.3001 193.564 13.6914C193.972 13.0755 194.176 12.0586 194.176 10.6406V4.99023H197.452V17H194.939ZM208.332 17.2148C206.921 17.2148 205.814 16.7028 205.012 15.6787H204.841C204.955 16.6813 205.012 17.2614 205.012 17.4189V22.2852H201.736V4.99023H204.4L204.862 6.54785H205.012C205.779 5.35905 206.914 4.76465 208.418 4.76465C209.836 4.76465 210.946 5.3125 211.748 6.4082C212.55 7.50391 212.951 9.02572 212.951 10.9736C212.951 12.2555 212.761 13.3691 212.382 14.3145C212.009 15.2598 211.476 15.9795 210.781 16.4736C210.086 16.9678 209.27 17.2148 208.332 17.2148ZM207.365 7.38574C206.556 7.38574 205.965 7.63639 205.592 8.1377C205.22 8.63184 205.027 9.45182 205.012 10.5977V10.9521C205.012 12.2412 205.202 13.165 205.582 13.7236C205.968 14.2822 206.577 14.5615 207.408 14.5615C208.876 14.5615 209.61 13.3512 209.61 10.9307C209.61 9.74902 209.427 8.86458 209.062 8.27734C208.704 7.68294 208.138 7.38574 207.365 7.38574Z" fill="white"/>
</svg>
